{
	"asset":{
		"generator":"Khronos glTF Blender I/O v4.2.60",
		"version":"2.0"
	},
	"scene":0,
	"scenes":[
		{
			"name":"Scene",
			"nodes":[
				0
			]
		}
	],
	"nodes":[
		{
			"mesh":0,
			"name":"model",
			"rotation":[
				0.7071068286895752,
				0,
				0,
				0.7071068286895752
			],
			"scale":[
				4.778125762939453,
				4.778125762939453,
				4.778125762939453
			],
			"translation":[
				0,
				4.671331882476807,
				0
			]
		}
	],
	"materials":[
		{
			"doubleSided":true,
			"name":"Material.004",
			"normalTexture":{
				"index":0
			},
			"pbrMetallicRoughness":{
				"baseColorTexture":{
					"index":1
				},
				"metallicRoughnessTexture":{
					"index":2
				}
			}
		}
	],
	"meshes":[
		{
			"name":"model.004",
			"primitives":[
				{
					"attributes":{
						"POSITION":0,
						"NORMAL":1,
						"TEXCOORD_0":2
					},
					"indices":3,
					"material":0
				}
			]
		}
	],
	"textures":[
		{
			"sampler":0,
			"source":0
		},
		{
			"sampler":0,
			"source":1
		},
		{
			"sampler":0,
			"source":2
		}
	],
	"images":[
		{
			"mimeType":"image/png",
			"name":"texture_normal",
			"uri":"texture_normal.png"
		},
		{
			"mimeType":"image/png",
			"name":"texture_diffuse",
			"uri":"texture_diffuse.png"
		},
		{
			"mimeType":"image/png",
			"name":"texture_metallic.png-texture_roughness.png",
			"uri":"texture_metallic_png-texture_roughness_png.png"
		}
	],
	"accessors":[
		{
			"bufferView":0,
			"componentType":5126,
			"count":20359,
			"max":[
				0.3431229889392853,
				0.205717995762825,
				0.9529590010643005
			],
			"min":[
				-0.3426609933376312,
				-0.20726099610328674,
				-0.9526640176773071
			],
			"type":"VEC3"
		},
		{
			"bufferView":1,
			"componentType":5126,
			"count":20359,
			"type":"VEC3"
		},
		{
			"bufferView":2,
			"componentType":5126,
			"count":20359,
			"type":"VEC2"
		},
		{
			"bufferView":3,
			"componentType":5123,
			"count":101838,
			"type":"SCALAR"
		}
	],
	"bufferViews":[
		{
			"buffer":0,
			"byteLength":244308,
			"byteOffset":0,
			"target":34962
		},
		{
			"buffer":0,
			"byteLength":244308,
			"byteOffset":244308,
			"target":34962
		},
		{
			"buffer":0,
			"byteLength":162872,
			"byteOffset":488616,
			"target":34962
		},
		{
			"buffer":0,
			"byteLength":203676,
			"byteOffset":651488,
			"target":34963
		}
	],
	"samplers":[
		{
			"magFilter":9729,
			"minFilter":9987
		}
	],
	"buffers":[
		{
			"byteLength":855164,
			"uri":"sucre.bin"
		}
	]
}
